<svg width="44" height="44" viewBox="0 0 44 44" fill="none" xmlns="http://www.w3.org/2000/svg">
<rect width="44" height="44" rx="8" fill="#70FF82"/>
<path d="M22.0008 13C24.3366 15.0666 27.3853 16.1426 30.5008 16C30.9544 17.543 31.0932 19.1615 30.9089 20.7592C30.7247 22.3569 30.2211 23.9013 29.4282 25.3005C28.6353 26.6998 27.5692 27.9254 26.2933 28.9045C25.0173 29.8836 23.5576 30.5962 22.0008 31C20.444 30.5962 18.9843 29.8836 17.7084 28.9045C16.4324 27.9254 15.3663 26.6998 14.5734 25.3005C13.7805 23.9013 13.2769 22.3569 13.0927 20.7592C12.9084 19.1615 13.0472 17.543 13.5008 16C16.6163 16.1426 19.665 15.0666 22.0008 13Z" stroke="#107B8B" stroke-width="2" stroke-linecap="round" stroke-linejoin="round"/>
</svg>
