<svg width="88" height="30" viewBox="0 0 88 30" fill="none" xmlns="http://www.w3.org/2000/svg">
<path d="M0.585786 13.3137C-0.195262 14.0948 -0.195262 15.3611 0.585786 16.1421L13.3137 28.8701C14.0948 29.6511 15.3611 29.6511 16.1421 28.8701C16.9232 28.089 16.9232 26.8227 16.1421 26.0416L4.82843 14.7279L16.1421 3.41423C16.9232 2.63318 16.9232 1.36685 16.1421 0.5858C15.3611 -0.195249 14.0948 -0.195249 13.3137 0.5858L0.585786 13.3137ZM87.4142 16.1421C88.1953 15.3611 88.1953 14.0948 87.4142 13.3137L74.6863 0.5858C73.9052 -0.195249 72.6389 -0.195249 71.8579 0.5858C71.0768 1.36685 71.0768 2.63318 71.8579 3.41423L83.1716 14.7279L71.8579 26.0416C71.0768 26.8227 71.0768 28.089 71.8579 28.8701C72.6389 29.6511 73.9052 29.6511 74.6863 28.8701L87.4142 16.1421ZM2 14.7279V16.7279H86V14.7279V12.7279H2V14.7279Z" fill="#5D5D69"/>
</svg>
