<svg width="44" height="44" viewBox="0 0 44 44" fill="none" xmlns="http://www.w3.org/2000/svg">
<rect width="44" height="44" rx="9" fill="#001542"/>
<rect width="44" height="44" rx="9" fill="#F8FBFF" fill-opacity="0.5"/>
<path d="M19 21C19 21.7956 19.3161 22.5587 19.8787 23.1213C20.4413 23.6839 21.2044 24 22 24C22.7956 24 23.5587 23.6839 24.1213 23.1213C24.6839 22.5587 25 21.7956 25 21C25 20.2044 24.6839 19.4413 24.1213 18.8787C23.5587 18.3161 22.7956 18 22 18C21.2044 18 20.4413 18.3161 19.8787 18.8787C19.3161 19.4413 19 20.2044 19 21Z" stroke="#F8FBFF" stroke-width="2" stroke-linecap="round" stroke-linejoin="round"/>
<path d="M27.657 26.657L23.414 30.9C23.039 31.2746 22.5306 31.485 22.0005 31.485C21.4704 31.485 20.962 31.2746 20.587 30.9L16.343 26.657C15.2242 25.5381 14.4623 24.1127 14.1537 22.5608C13.845 21.009 14.0035 19.4005 14.609 17.9387C15.2145 16.4769 16.2399 15.2275 17.5555 14.3485C18.8711 13.4694 20.4178 13.0002 22 13.0002C23.5822 13.0002 25.1289 13.4694 26.4445 14.3485C27.7601 15.2275 28.7855 16.4769 29.391 17.9387C29.9965 19.4005 30.155 21.009 29.8463 22.5608C29.5377 24.1127 28.7758 25.5381 27.657 26.657Z" stroke="#F8FBFF" stroke-width="2" stroke-linecap="round" stroke-linejoin="round"/>
</svg>
