<svg width="1440" height="1180" viewBox="0 0 1440 1180" fill="none" xmlns="http://www.w3.org/2000/svg">
<g filter="url(#filter0_f_379_3305)">
<path d="M1466.03 419C1468.04 411.992 1470.9 403.968 1473.39 395.935C1477.18 383.713 1476.24 373.558 1474.34 363.603C1472.72 355.068 1466.69 349.572 1462.95 343.52C1459.21 337.463 1455.33 331.242 1451.06 326.658C1446.89 322.183 1442.83 316.801 1438.82 309.731C1433.51 300.367 1429.28 274.766 1426.04 255.377C1423.91 242.696 1423.19 229.858 1423 192.645C1424.24 179.982 1426.36 172.079 1429.74 163.461C1430.99 160.594 1432.75 156.616 1436.76 149" stroke="#107B8B" stroke-width="426" stroke-linecap="round"/>
</g>
<g filter="url(#filter1_f_379_3305)">
<path d="M-33.2601 -69.4832C-103.379 -135.209 -224.246 -98.94 -303.225 11.5255C-382.204 121.991 -389.386 264.822 -319.267 330.548L-176.264 130.532L-33.2601 -69.4832ZM-135.878 229.504L44.9678 90.6813L44.9678 90.6813L-135.878 229.504ZM-84.5584 359.063L88.8789 201.642L-84.5584 359.063ZM-33.4738 451.583L-197.554 626.039L-193.457 632.465L-188.805 638.263L-33.4738 451.583ZM-2.01609 489.861L151.156 300.559L148.931 297.928L146.591 295.441L-2.01609 489.861ZM-125.099 714.834C-59.434 786.541 60.8548 758.19 143.574 651.51C226.293 544.83 240.118 400.219 174.453 328.512L24.6772 521.673L-125.099 714.834ZM-176.264 130.532L-319.267 330.548C-326.399 323.863 -331.19 317.702 -333.459 314.657C-336.045 311.186 -337.881 308.323 -338.906 306.669C-339.997 304.907 -340.752 303.567 -341.148 302.848C-341.563 302.094 -341.792 301.644 -341.825 301.578C-341.867 301.497 -341.503 302.216 -340.721 303.946C-339.965 305.619 -338.969 307.905 -337.74 310.856C-332.67 323.03 -325.345 342.42 -316.725 368.327L-135.878 229.504L44.9678 90.6813C34.2965 58.6112 24.0413 30.9646 15.0484 9.37182C10.629 -1.23978 5.84098 -12.0152 0.901958 -21.7581C-0.131206 -23.7962 -12.3694 -49.9014 -33.2601 -69.4832L-176.264 130.532ZM-135.878 229.504L-316.725 368.327C-300.047 418.447 -278.607 472.62 -257.996 516.484L-84.5584 359.063L88.8789 201.642C74.1846 170.371 57.62 128.705 44.9678 90.6813L-135.878 229.504ZM-84.5584 359.063L-257.996 516.484C-233.151 569.358 -208.297 609.189 -197.554 626.039L-33.4738 451.583L130.606 277.126C122.723 264.76 105.58 237.185 88.8789 201.642L-84.5584 359.063ZM-33.4738 451.583L-188.805 638.263C-183.179 645.273 -166.173 667.751 -150.623 684.28L-2.01609 489.861L146.591 295.441C140.341 288.796 136.745 283.454 121.857 264.902L-33.4738 451.583ZM-2.01609 489.861L-155.188 679.162C-152.875 681.897 -152.278 682.797 -145.559 691.049C-140.281 697.531 -133.464 705.698 -125.099 714.834L24.6772 521.673L174.453 328.512C170.683 324.395 167.352 320.44 163.917 316.221C162.029 313.902 160.509 312 158.321 309.284C156.409 306.911 153.849 303.744 151.156 300.559L-2.01609 489.861Z" fill="#70FF82"/>
</g>
<g filter="url(#filter2_f_379_3305)">
<path d="M-174.927 1027.16C-167.315 1144.55 -69.9474 1211.84 42.5494 1177.44C155.046 1143.05 240.072 1020.01 232.46 902.617L28.7668 964.89L-174.927 1027.16ZM29.7971 953.102L233.268 923.225L29.7971 953.102ZM24.6268 922.262L-172.263 1025.54L24.6268 922.262ZM20.9298 906.847L-176.508 1008.1L20.9298 906.847ZM18.7951 895.621L-179.493 993.522L18.7951 895.621ZM18.0118 893.923L54.7456 672.582L18.0118 893.923ZM10.1421 909.535L-178.862 871.999V871.999L10.1421 909.535ZM1.52967 930.533L-179.347 872.566L1.52967 930.533ZM-3.39464 942.937L-182.069 880.119L-3.39464 942.937ZM-6.34089 948.158L-189.364 895.163L-6.34089 948.158ZM-23.0612 957.774L-70.9666 758.752L-23.0612 957.774ZM-24.633 964.532L163.81 837.216L163.81 837.216L-24.633 964.532ZM-14.6855 949.868L141.561 1052.51L141.561 1052.51L-14.6855 949.868ZM-8.31745 939.715L-178.806 860.637L-178.806 860.637L-8.31745 939.715ZM0.825578 925.879L177.62 992.662L180.044 987.648L182.266 982.565L0.825578 925.879ZM146.683 735.818C67.7321 669.019 -61.5284 697.941 -142.028 800.417C-222.528 902.892 -223.784 1040.12 -144.833 1106.91L0.924834 921.366L146.683 735.818ZM28.7668 964.89L232.46 902.617C232.925 909.782 232.94 915.572 232.92 918.606C232.897 922.002 232.802 924.793 232.727 926.603C232.581 930.127 232.385 932.891 232.296 934.096C232.115 936.552 231.935 938.414 231.934 938.425C231.906 938.726 231.888 938.9 231.935 938.428C231.966 938.108 232.027 937.486 232.095 936.787C232.396 933.679 232.818 929.122 233.268 923.225L29.7971 953.102L-173.674 982.978C-173.808 984.74 -173.915 985.872 -173.99 986.641C-174.016 986.911 -174.039 987.145 -174.081 987.571C-174.108 987.844 -174.187 988.652 -174.265 989.478C-174.316 990.016 -174.533 992.296 -174.737 995.063C-174.838 996.424 -175.042 999.318 -175.192 1002.95C-175.269 1004.81 -175.365 1007.64 -175.388 1011.08C-175.409 1014.15 -175.393 1019.97 -174.927 1027.16L28.7668 964.89ZM29.7971 953.102L233.268 923.225C236.164 885.279 231.809 853.974 225.186 829.534C222.001 817.78 218.605 808.801 216.619 803.786C216.167 802.643 215.776 801.681 215.613 801.279C215.348 800.624 215.519 801.044 215.699 801.496C215.889 801.976 216.582 803.722 217.438 806.1C218.238 808.32 219.843 812.909 221.517 818.984L24.6268 922.262L-172.263 1025.54C-170.475 1032.03 -168.718 1037.08 -167.736 1039.81C-166.697 1042.69 -165.79 1044.99 -165.36 1046.08C-164.941 1047.13 -164.504 1048.2 -164.485 1048.25C-164.363 1048.55 -164.449 1048.34 -164.583 1048C-165.294 1046.21 -167.191 1041.28 -169.022 1034.52C-172.938 1020.07 -175.166 1002.53 -173.674 982.978L29.7971 953.102ZM24.6268 922.262L221.517 818.984C221.919 820.441 222.158 821.438 222.21 821.655C222.237 821.767 222.201 821.621 221.913 820.342C221.703 819.406 221.202 817.165 220.666 814.872C220.091 812.411 219.322 809.221 218.367 805.599L20.9298 906.847L-176.508 1008.1C-176.882 1006.67 -177.111 1005.57 -176.341 1008.99C-175.829 1011.27 -174.334 1018.02 -172.263 1025.54L24.6268 922.262ZM20.9298 906.847L218.367 805.599C219.639 810.423 220.409 814.259 220.794 816.291C221.159 818.22 221.368 819.573 221.248 818.832C221.219 818.65 221.205 818.56 221.148 818.206C221.103 817.926 221.037 817.515 220.963 817.058C220.817 816.165 220.586 814.76 220.297 813.114C220.006 811.458 219.608 809.282 219.103 806.78C218.598 804.28 217.934 801.196 217.083 797.721L18.7951 895.621L-179.493 993.522C-180.735 988.447 -181.428 984.565 -181.646 983.326C-181.775 982.594 -181.851 982.121 -181.842 982.175C-181.796 982.459 -181.827 982.272 -181.666 983.273C-181.474 984.467 -180.941 987.784 -180.208 991.661C-179.455 995.641 -178.272 1001.41 -176.508 1008.1L20.9298 906.847ZM18.7951 895.621L217.083 797.721C218.361 802.941 219.507 808.988 218.822 805.542C218.806 805.458 217.049 796.03 213.651 785.137C210.645 775.506 201.932 749.417 180.563 724.793C155.567 695.99 113.625 670.211 54.7456 672.582L18.0118 893.923L-18.7219 1115.26C-77.3249 1117.62 -119.056 1091.95 -143.883 1063.35C-165.082 1038.92 -173.671 1013.11 -176.573 1003.81C-178.424 997.873 -179.623 992.96 -180.287 990.078C-180.949 987.204 -181.395 984.947 -181.483 984.505C-182.089 981.455 -180.866 987.911 -179.493 993.522L18.7951 895.621ZM18.0118 893.923L54.7456 672.582C-33.6752 676.144 -98.8747 737.255 -129.662 777.474C-155.561 811.306 -168.091 842.782 -171.475 851.271C-176.196 863.116 -179.414 873.416 -179.911 874.975C-181.499 879.953 -180.156 875.657 -178.862 871.999L10.1421 909.535L199.146 947.071C200.667 942.771 201.842 939.172 202.495 937.149C202.837 936.088 203.133 935.159 203.309 934.605C203.549 933.851 203.557 933.824 203.635 933.577C204.266 931.601 202.182 938.446 198.673 947.248C196.503 952.694 185.265 981.538 160.813 1013.48C131.471 1051.81 67.8716 1111.78 -18.7219 1115.26L18.0118 893.923ZM10.1421 909.535L-178.862 871.999C-179.082 872.621 -179.2 872.942 -179.222 873.001C-179.243 873.058 -179.159 872.828 -178.972 872.35C-178.783 871.866 -178.494 871.138 -178.106 870.2C-177.713 869.249 -177.251 868.163 -176.725 866.965C-176.465 866.374 -176.204 865.789 -175.943 865.212C-175.682 864.634 -175.436 864.097 -175.209 863.61C-174.76 862.641 -174.431 861.955 -174.424 861.942C-174.424 861.941 -174.429 861.951 -174.439 861.973C-174.451 861.996 -174.465 862.027 -174.488 862.075C-174.5 862.098 -174.512 862.123 -174.526 862.153C-174.54 862.182 -174.556 862.216 -174.573 862.251C-174.607 862.321 -174.649 862.41 -174.696 862.507C-174.787 862.698 -174.916 862.965 -175.062 863.272C-175.21 863.581 -175.392 863.962 -175.597 864.394C-176.002 865.249 -176.547 866.404 -177.173 867.76C-177.805 869.128 -178.541 870.746 -179.347 872.566L1.52967 930.533L182.407 988.499C180.525 992.749 178.287 997.347 180.034 993.701C181.17 991.331 183.243 986.97 185.714 981.345C190.605 970.215 194.929 958.999 199.146 947.071L10.1421 909.535ZM1.52967 930.533L-179.347 872.566C-182.825 880.417 -185.33 886.92 -186.777 890.782C-187.49 892.687 -188.07 894.284 -188.358 895.078C-188.494 895.453 -188.651 895.89 -188.693 896.004C-188.764 896.203 -188.771 896.219 -188.755 896.177C-188.681 895.974 -187.893 893.801 -186.709 890.845C-185.464 887.736 -183.922 884.103 -182.069 880.119L-3.39464 942.937L175.28 1005.76C181.62 992.124 185.686 981.123 187.542 976.021C187.738 975.482 187.909 975.009 188.012 974.723C188.146 974.354 188.161 974.312 188.196 974.213C188.252 974.06 188.011 974.728 187.641 975.715C186.882 977.742 185.084 982.455 182.407 988.499L1.52967 930.533ZM-3.39464 942.937L-182.069 880.119C-177.188 869.622 -172.482 861.228 -169.143 855.592C-167.53 852.87 -166.21 850.749 -165.497 849.616C-164.96 848.759 -164.313 847.748 -164.858 848.602C-165.091 848.968 -166.186 850.683 -167.5 852.812C-168.883 855.053 -170.856 858.308 -173.119 862.275C-177.765 870.418 -183.645 881.566 -189.364 895.163L-6.34089 948.158L176.682 1001.15C171.366 1013.79 165.94 1024.06 161.777 1031.36C159.755 1034.9 158.03 1037.74 156.899 1039.57C156.329 1040.5 155.861 1041.24 155.556 1041.73C155.262 1042.19 155.045 1042.53 155.028 1042.56C155.027 1042.56 155.007 1042.59 155.076 1042.48C155.121 1042.41 155.218 1042.26 155.332 1042.08C155.557 1041.73 155.96 1041.09 156.449 1040.32C157.422 1038.77 159.002 1036.22 160.872 1033.07C164.725 1026.56 169.931 1017.26 175.28 1005.76L-3.39464 942.937ZM-6.34089 948.158L-189.364 895.163C-166.402 840.575 -130.573 803.021 -101.561 780.747C-75.3207 760.602 -52.7297 751.251 -43.7086 747.757C-34.3224 744.121 -26.3833 741.999 -29.5976 742.922C-29.623 742.93 -34.0022 744.164 -38.8469 745.737C-42.8153 747.026 -55.458 751.156 -70.9666 758.752L-23.0612 957.774L24.8443 1156.8C10.2306 1163.95 -1.31134 1167.68 -4.02688 1168.56C-7.61872 1169.72 -10.593 1170.55 -9.11523 1170.13C-8.86566 1170.06 -5.63574 1169.14 -2.03467 1168.02C1.785 1166.83 7.68923 1164.9 14.7624 1162.16C27.1447 1157.36 53.0589 1146.38 82.1534 1124.04C114.02 1099.58 152.234 1059.27 176.682 1001.15L-6.34089 948.158ZM-23.0612 957.774L-70.9666 758.752C-124.646 785.041 -171.363 831.949 -200.08 889.717C-224.804 939.455 -228.733 981.978 -229.258 1003.64C-230.228 1043.66 -220.981 1073.61 -213.076 1091.85L-24.633 964.532L163.81 837.216C171.392 854.709 179.827 882.061 178.925 919.278C178.434 939.542 174.759 980.614 150.679 1029.05C122.607 1085.53 76.9255 1131.29 24.8443 1156.8L-23.0612 957.774ZM-24.633 964.532L-213.076 1091.85C-206.599 1106.79 -176.607 1172.48 -93.4107 1184.9C1.01907 1199 74.6699 1134.11 97.1418 1111.5C121.728 1086.77 136.4 1062.92 140.422 1056.38C146.3 1046.82 150.482 1038.84 152.112 1035.7C165.293 1010.35 151.333 1037.91 141.561 1052.51L-14.6855 949.868L-170.932 847.231C-185.553 869.07 -203.676 905.837 -193.852 886.935C-193.061 885.413 -189.667 878.873 -184.525 870.511C-181.239 865.167 -167.251 842.268 -143.295 818.172C-121.452 796.203 -48.3772 731.626 45.5331 745.648C128.21 757.992 157.739 823.208 163.81 837.216L-24.633 964.532ZM-14.6855 949.868L141.561 1052.51C143.185 1050.08 152.843 1035.98 162.171 1018.79L-8.31745 939.715L-178.806 860.637C-175.578 854.691 -172.804 850.208 -171.331 847.889C-170.633 846.792 -170.175 846.099 -170.152 846.063C-170.13 846.03 -170.172 846.093 -170.311 846.302C-170.454 846.517 -170.642 846.798 -170.932 847.231L-14.6855 949.868ZM-8.31745 939.715L162.171 1018.79C156.564 1029.12 151.63 1036.55 149.717 1039.38C147.722 1042.34 146.164 1044.47 147.184 1043.06C147.352 1042.82 148.39 1041.38 149.381 1039.99C150.438 1038.5 152.248 1035.94 154.358 1032.83C156.411 1029.81 159.572 1025.05 163.156 1019.17C166.561 1013.59 171.96 1004.37 177.62 992.662L0.825578 925.879L-175.968 859.095C-173.217 853.404 -170.649 848.582 -168.549 844.804C-166.431 840.996 -164.515 837.76 -162.961 835.212C-161.397 832.646 -160.014 830.474 -158.913 828.777C-157.805 827.072 -156.851 825.647 -156.121 824.571C-155.388 823.49 -154.783 822.617 -154.363 822.016C-153.942 821.413 -153.627 820.968 -153.472 820.75C-153.319 820.536 -153.245 820.434 -153.325 820.544C-153.447 820.715 -153.507 820.797 -153.838 821.258C-154.316 821.922 -155.405 823.436 -156.642 825.187C-157.912 826.983 -159.671 829.5 -161.681 832.48C-163.683 835.45 -166.211 839.289 -169.004 843.786C-170.417 846.061 -171.958 848.601 -173.583 851.377C-175.206 854.149 -176.966 857.247 -178.806 860.637L-8.31745 939.715ZM0.825578 925.879L182.266 982.565C186.9 971.964 197.935 945.52 203.036 911.374L1.56733 923.529L-199.901 935.684C-195.035 903.107 -184.553 878.202 -180.615 869.192L0.825578 925.879ZM1.56733 923.529L203.036 911.374C205.554 894.515 208.754 862.255 200.23 826.085C191.078 787.25 171.529 756.839 146.683 735.818L0.924834 921.366L-144.833 1106.91C-168.97 1086.49 -188.139 1056.77 -197.118 1018.67C-205.469 983.237 -202.303 951.758 -199.901 935.684L1.56733 923.529Z" fill="#107B8B"/>
</g>
<g filter="url(#filter3_f_379_3305)">
<path d="M1619.19 1100.52C1715.54 1066.42 1752.31 940.713 1701.33 819.747C1650.35 698.781 1530.92 628.362 1434.58 662.462L1526.88 881.49L1619.19 1100.52ZM1507.48 886.206L1547.71 1113.77L1507.48 886.206ZM1468.86 868.708L1425.36 1075.16L1468.86 868.708ZM1451.85 858.224L1517.93 664.619L1451.85 858.224ZM1428.19 836.274L1324.02 999.969L1428.19 836.274ZM1417.26 825.868L1524.64 665.243L1417.26 825.868ZM1398.04 810.205L1307.8 986.174L1398.04 810.205ZM1372.64 788.738L1482.2 630.267L1478.24 626.322L1474.15 622.566L1372.64 788.738ZM1364.2 779.587L1481.89 629.541L1479.67 627.149L1477.41 624.817L1364.2 779.587ZM1493.88 643.792C1414.02 540.794 1289.14 515.682 1214.95 587.703C1140.76 659.724 1145.36 801.605 1225.21 904.603L1359.55 774.197L1493.88 643.792ZM1526.88 881.49L1434.58 662.462C1434.63 662.441 1434.65 662.435 1434.73 662.412C1434.76 662.4 1435.27 662.239 1436.25 661.985C1437.04 661.778 1439.45 661.166 1443.07 660.533C1444.95 660.205 1447.77 659.761 1451.35 659.388C1454.74 659.034 1460.24 658.591 1467.25 658.646L1507.48 886.206L1547.71 1113.77C1572.62 1113.96 1592.84 1108.43 1597.04 1107.34C1605.63 1105.11 1613.42 1102.56 1619.19 1100.52L1526.88 881.49ZM1507.48 886.206L1467.25 658.646C1482.2 658.763 1494.62 661.076 1502.82 663.045C1511.24 665.066 1517.93 667.389 1522.24 669.026C1530.39 672.118 1535.64 674.926 1535.88 675.055C1536.33 675.287 1536.2 675.242 1532.32 673.029C1530.89 672.218 1528.15 670.658 1525.33 669.094C1522.6 667.582 1517.9 665.01 1512.35 662.254L1468.86 868.708L1425.36 1075.16C1420.71 1072.85 1417.35 1070.84 1422.5 1073.77C1425.12 1075.27 1432.14 1079.29 1439.78 1083.3C1447.22 1087.21 1459.71 1093.51 1474.6 1099.16C1487.47 1104.05 1514.91 1113.51 1547.71 1113.77L1507.48 886.206ZM1468.86 868.708L1512.35 662.254C1516.42 664.274 1519.72 666.119 1522.04 667.472C1524.28 668.783 1525.79 669.741 1526.08 669.927C1526.25 670.033 1526.24 670.028 1525.94 669.834C1525.61 669.624 1525.21 669.357 1524.45 668.863C1523.18 668.025 1520.67 666.38 1517.93 664.619L1451.85 858.224L1385.77 1051.83C1386.31 1052.18 1386.9 1052.56 1388.59 1053.67C1389.91 1054.54 1392.61 1056.31 1395.52 1058.17C1401.43 1061.93 1412.09 1068.56 1425.36 1075.16L1468.86 868.708ZM1451.85 858.224L1517.93 664.619C1535.07 675.638 1546.7 687.146 1550.79 691.349C1551.74 692.325 1552.32 692.946 1552.23 692.846C1552.18 692.795 1552.05 692.659 1551.71 692.291C1551.51 692.076 1550.8 691.304 1550.27 690.74C1549.14 689.522 1546.85 687.058 1544.13 684.241C1541.38 681.389 1537.32 677.26 1532.36 672.579L1428.19 836.274L1324.02 999.969C1317.94 994.234 1313.68 989.525 1315.44 991.424C1315.74 991.746 1315.87 991.879 1316.52 992.582C1317.03 993.133 1317.77 993.93 1318.6 994.823C1320.27 996.613 1322.68 999.168 1325.54 1002.1C1337.27 1014.13 1357.76 1033.81 1385.77 1051.83L1451.85 858.224ZM1428.19 836.274L1532.36 672.579C1528.18 668.644 1526.15 666.716 1524.64 665.243L1417.26 825.868L1309.89 986.493C1315.19 991.65 1320.6 996.747 1324.02 999.969L1428.19 836.274ZM1417.26 825.868L1524.64 665.243C1516.05 656.886 1508.54 650.571 1505.17 647.766C1501.17 644.444 1497.52 641.539 1495.4 639.865C1494.25 638.954 1493.1 638.053 1492.26 637.393C1491.34 636.663 1490.66 636.131 1490.03 635.627C1489.41 635.141 1488.98 634.799 1488.67 634.549C1488.36 634.3 1488.25 634.207 1488.28 634.237L1398.04 810.205L1307.8 986.174C1309.69 987.727 1311.45 989.152 1313.01 990.407C1314.58 991.66 1316.02 992.809 1317.26 993.791C1318.48 994.755 1319.64 995.671 1320.52 996.358C1321.48 997.115 1322.1 997.6 1322.65 998.038C1322.9 998.238 1323.09 998.384 1323.22 998.489C1323.35 998.594 1323.4 998.637 1323.39 998.629C1323.38 998.622 1323.28 998.541 1323.11 998.398C1322.93 998.256 1322.65 998.021 1322.27 997.707C1321.9 997.395 1321.38 996.964 1320.75 996.429C1320.13 995.897 1319.33 995.204 1318.38 994.37C1317.44 993.54 1316.26 992.483 1314.89 991.224C1313.53 989.974 1311.83 988.385 1309.89 986.493L1417.26 825.868ZM1398.04 810.205L1488.28 634.237C1484.27 630.939 1480.82 628.147 1478.27 626.092C1476.9 624.99 1476.02 624.283 1475.14 623.57C1474.32 622.902 1473.85 622.523 1473.58 622.3C1473.01 621.827 1473.89 622.541 1475.49 623.95C1477.24 625.505 1479.57 627.646 1482.2 630.267L1372.64 788.738L1263.08 947.209C1275.36 959.425 1286.1 968.484 1293.13 974.26C1296.3 976.868 1299.65 979.557 1301.58 981.119C1303.87 982.964 1305.76 984.497 1307.8 986.174L1398.04 810.205ZM1372.64 788.738L1474.15 622.566C1477.75 625.87 1481.08 629.16 1484.13 632.343C1487.17 635.52 1489.62 638.27 1491.32 640.224C1492.13 641.158 1492.73 641.866 1492.98 642.164C1493 642.191 1493.4 642.666 1492.63 641.751C1492.23 641.272 1490.95 639.754 1489.4 637.951C1487.83 636.127 1485.2 633.115 1481.89 629.541L1364.2 779.587L1246.51 929.632C1243.63 926.527 1241.45 924.026 1240.35 922.753C1239.76 922.066 1239.3 921.525 1239.04 921.214C1238.9 921.052 1238.79 920.926 1238.73 920.849C1238.7 920.809 1238.67 920.778 1238.65 920.759C1238.64 920.739 1238.63 920.728 1238.63 920.727C1238.31 920.356 1240.87 923.418 1243.52 926.472C1250 933.935 1259.22 943.968 1271.13 954.911L1372.64 788.738ZM1364.2 779.587L1477.41 624.817C1473.71 620.997 1479.32 626.706 1483.73 631.64C1488.51 637 1492 641.367 1493.88 643.792L1359.55 774.197L1225.21 904.603C1229.71 910.409 1235.05 916.982 1241.27 923.947C1247.11 930.486 1253.73 937.199 1250.98 934.356L1364.2 779.587Z" fill="#70FF82"/>
</g>
<defs>
<filter id="filter0_f_379_3305" x="1109.95" y="-164.043" width="679.053" height="896.098" filterUnits="userSpaceOnUse" color-interpolation-filters="sRGB">
<feFlood flood-opacity="0" result="BackgroundImageFix"/>
<feBlend mode="normal" in="SourceGraphic" in2="BackgroundImageFix" result="shape"/>
<feGaussianBlur stdDeviation="50" result="effect1_foregroundBlur_379_3305"/>
</filter>
<filter id="filter1_f_379_3305" x="-467.496" y="-202.246" width="783.412" height="1056.68" filterUnits="userSpaceOnUse" color-interpolation-filters="sRGB">
<feFlood flood-opacity="0" result="BackgroundImageFix"/>
<feBlend mode="normal" in="SourceGraphic" in2="BackgroundImageFix" result="shape"/>
<feGaussianBlur stdDeviation="50" result="effect1_foregroundBlur_379_3305"/>
</filter>
<filter id="filter2_f_379_3305" x="-329.328" y="572.431" width="663.508" height="714.452" filterUnits="userSpaceOnUse" color-interpolation-filters="sRGB">
<feFlood flood-opacity="0" result="BackgroundImageFix"/>
<feBlend mode="normal" in="SourceGraphic" in2="BackgroundImageFix" result="shape"/>
<feGaussianBlur stdDeviation="50" result="effect1_foregroundBlur_379_3305"/>
</filter>
<filter id="filter3_f_379_3305" x="1062.18" y="446.613" width="762.105" height="767.157" filterUnits="userSpaceOnUse" color-interpolation-filters="sRGB">
<feFlood flood-opacity="0" result="BackgroundImageFix"/>
<feBlend mode="normal" in="SourceGraphic" in2="BackgroundImageFix" result="shape"/>
<feGaussianBlur stdDeviation="50" result="effect1_foregroundBlur_379_3305"/>
</filter>
</defs>
</svg>
