<svg width="172" height="40" viewBox="0 0 172 40" fill="none" xmlns="http://www.w3.org/2000/svg">
<path d="M14.8087 14.2653C16.2003 13.251 18.151 13.5571 19.1655 14.9487C21.0358 17.5144 22.3264 19.9751 22.7514 22.386C23.2051 24.9597 22.6352 27.2837 21.1814 29.2775C19.8279 31.1337 17.8176 32.5567 15.6267 33.7587C13.4059 34.9771 10.7172 36.1166 7.75871 37.283C6.15651 37.9147 4.34546 37.1275 3.71379 35.5253C3.08234 33.9233 3.86899 32.1129 5.47096 31.4812C8.39317 30.3291 10.7726 29.3079 12.6272 28.2904C14.5117 27.2565 15.5847 26.3672 16.1423 25.6025C16.5995 24.9754 16.7683 24.3686 16.6096 23.4688C16.4223 22.4062 15.7494 20.8499 14.1253 18.6221C13.111 17.2304 13.4171 15.2798 14.8087 14.2653Z" fill="#F8FBFF"/>
<path d="M10.9087 25.5578C9.5005 26.549 7.55514 26.2108 6.56373 24.8027C4.73588 22.2065 3.48601 19.7249 3.10075 17.3074C2.68952 14.7265 3.29767 12.4123 4.78405 10.4427C6.16797 8.60901 8.20141 7.21935 10.4118 6.05357C12.6524 4.87191 15.3595 3.77685 18.3368 2.65933C19.9492 2.05414 21.747 2.87105 22.3522 4.48343C22.9572 6.09567 22.1409 7.89282 20.5287 8.49805C17.5879 9.60185 15.192 10.5837 13.3209 11.5706C11.4196 12.5733 10.3321 13.4447 9.76198 14.2001C9.2945 14.8197 9.11577 15.4236 9.25954 16.3259C9.42935 17.3914 10.0766 18.9586 11.6638 21.2129C12.6549 22.621 12.3168 24.5664 10.9087 25.5578Z" fill="#F8FBFF"/>
<path d="M40.3483 31.45C38.5883 31.45 36.9883 31.15 35.5483 30.55C34.1283 29.95 32.9883 29.08 32.1283 27.94C31.2883 26.78 30.8683 25.36 30.8683 23.68H36.2083C36.3083 24.8 36.7283 25.63 37.4683 26.17C38.2083 26.71 39.1283 26.98 40.2283 26.98C41.3083 26.98 42.1983 26.79 42.8983 26.41C43.5983 26.03 43.9483 25.5 43.9483 24.82C43.9483 24.24 43.7383 23.81 43.3183 23.53C42.8983 23.25 42.2583 22.98 41.3983 22.72L36.5983 21.31C35.6583 21.03 34.7683 20.68 33.9283 20.26C33.0883 19.82 32.4083 19.22 31.8883 18.46C31.3883 17.7 31.1383 16.67 31.1383 15.37C31.1383 13.87 31.4983 12.58 32.2183 11.5C32.9383 10.4 33.9583 9.55 35.2783 8.95C36.5983 8.35 38.1483 8.05 39.9283 8.05C42.5083 8.05 44.5983 8.68 46.1983 9.94C47.8183 11.2 48.7483 12.99 48.9883 15.31H43.5883C43.1683 13.41 41.8783 12.46 39.7183 12.46C38.6783 12.46 37.8783 12.66 37.3183 13.06C36.7783 13.46 36.5083 14 36.5083 14.68C36.5083 15.18 36.6783 15.6 37.0183 15.94C37.3583 16.28 37.8983 16.56 38.6383 16.78L43.6483 18.28C45.5683 18.84 46.9683 19.61 47.8483 20.59C48.7283 21.57 49.1683 22.85 49.1683 24.43C49.1683 25.83 48.7983 27.06 48.0583 28.12C47.3383 29.16 46.3183 29.98 44.9983 30.58C43.6783 31.16 42.1283 31.45 40.3483 31.45ZM59.7182 31.45C57.9782 31.45 56.4682 31.09 55.1882 30.37C53.9082 29.63 52.9082 28.59 52.1882 27.25C51.4882 25.89 51.1382 24.29 51.1382 22.45C51.1382 20.61 51.4882 19.02 52.1882 17.68C52.8882 16.34 53.8682 15.3 55.1282 14.56C56.4082 13.82 57.9082 13.45 59.6282 13.45C61.4082 13.45 62.9182 13.85 64.1582 14.65C65.4182 15.45 66.3582 16.61 66.9782 18.13C67.6182 19.65 67.8882 21.48 67.7882 23.62H56.0282C56.1882 24.9 56.6082 25.9 57.2882 26.62C57.9682 27.34 58.8482 27.7 59.9282 27.7C60.8082 27.7 61.5282 27.49 62.0882 27.07C62.6482 26.63 62.9982 26.1 63.1382 25.48H67.6682C67.4682 26.72 66.9982 27.79 66.2582 28.69C65.5382 29.57 64.6182 30.25 63.4982 30.73C62.3782 31.21 61.1182 31.45 59.7182 31.45ZM59.6582 17.17C58.6782 17.17 57.8682 17.49 57.2282 18.13C56.5882 18.75 56.1882 19.59 56.0282 20.65H62.9882C62.9082 19.39 62.5382 18.5 61.8782 17.98C61.2182 17.44 60.4782 17.17 59.6582 17.17ZM57.7682 12.1L60.1982 7.51H65.4482L61.7282 12.1H57.7682ZM70.2309 31V21.1C70.2309 18.64 70.8909 16.75 72.2109 15.43C73.5509 14.11 75.4609 13.45 77.9409 13.45C78.2009 13.45 78.6109 13.47 79.1709 13.51C79.7309 13.53 80.2909 13.6 80.8509 13.72V17.89C80.4709 17.83 80.1109 17.78 79.7709 17.74C79.4309 17.68 79.0509 17.65 78.6309 17.65C78.0109 17.65 77.4309 17.74 76.8909 17.92C76.3509 18.1 75.9109 18.44 75.5709 18.94C75.2509 19.44 75.0909 20.17 75.0909 21.13V31H70.2309ZM90.3042 31.45C88.5642 31.45 87.0542 31.09 85.7742 30.37C84.4942 29.63 83.4942 28.59 82.7742 27.25C82.0742 25.89 81.7242 24.29 81.7242 22.45C81.7242 20.61 82.0742 19.02 82.7742 17.68C83.4742 16.34 84.4542 15.3 85.7142 14.56C86.9942 13.82 88.4942 13.45 90.2142 13.45C91.9942 13.45 93.5042 13.85 94.7442 14.65C96.0042 15.45 96.9442 16.61 97.5642 18.13C98.2042 19.65 98.4742 21.48 98.3742 23.62H86.6142C86.7742 24.9 87.1942 25.9 87.8742 26.62C88.5542 27.34 89.4342 27.7 90.5142 27.7C91.3942 27.7 92.1142 27.49 92.6742 27.07C93.2342 26.63 93.5842 26.1 93.7242 25.48H98.2542C98.0542 26.72 97.5842 27.79 96.8442 28.69C96.1242 29.57 95.2042 30.25 94.0842 30.73C92.9642 31.21 91.7042 31.45 90.3042 31.45ZM90.2442 17.17C89.2642 17.17 88.4542 17.49 87.8142 18.13C87.1742 18.75 86.7742 19.59 86.6142 20.65H93.5742C93.4942 19.39 93.1242 18.5 92.4642 17.98C91.8042 17.44 91.0642 17.17 90.2442 17.17ZM88.3542 12.1L90.7842 7.51H96.0342L92.3142 12.1H88.3542ZM100.813 31V20.95C100.813 19.41 101.123 18.08 101.743 16.96C102.383 15.84 103.283 14.98 104.443 14.38C105.603 13.76 106.973 13.45 108.553 13.45C110.133 13.45 111.503 13.76 112.663 14.38C113.823 14.98 114.713 15.84 115.333 16.96C115.973 18.08 116.293 19.41 116.293 20.95V31H111.433V21.01C111.433 19.93 111.163 19.1 110.623 18.52C110.103 17.94 109.413 17.65 108.553 17.65C107.713 17.65 107.023 17.94 106.483 18.52C105.943 19.1 105.673 19.93 105.673 21.01V31H100.813Z" fill="#F8FBFF"/>
<path d="M125.654 5.29936C126.182 4.08623 127.594 3.53096 128.807 4.05923C130.465 4.78102 131.88 5.64741 132.855 6.79424C133.912 8.03776 134.347 9.49051 134.193 11.0331C134.051 12.4457 133.43 13.7913 132.699 15.0143C131.955 16.2599 130.964 17.5885 129.872 18.9815C129.055 20.0226 127.549 20.2047 126.508 19.3881C125.467 18.5716 125.285 17.0657 126.102 16.0245C127.175 14.6552 128.007 13.5256 128.587 12.5555C129.18 11.5629 129.387 10.9352 129.425 10.5554C129.45 10.3057 129.416 10.1469 129.205 9.89819C128.911 9.55279 128.257 9.04609 126.894 8.45259C125.681 7.92432 125.126 6.5125 125.654 5.29936Z" fill="#F8FBFF"/>
<path d="M143.842 31V8.5H149.152V31H143.842ZM158.337 31V13.18H151.977V8.5H169.977V13.18H163.617V31H158.337Z" fill="#F8FBFF"/>
</svg>
