<svg width="112" height="27" viewBox="0 0 112 27" fill="none" xmlns="http://www.w3.org/2000/svg">
<path d="M9.70441 9.16399C10.6164 8.4993 11.8947 8.69991 12.5595 9.61184C13.7852 11.2932 14.6309 12.9058 14.9095 14.4856C15.2068 16.1723 14.8333 17.6952 13.8806 19.0017C12.9936 20.2182 11.6762 21.1507 10.2405 21.9384C8.78514 22.7368 7.02322 23.4836 5.08443 24.2479C4.03448 24.6619 2.84766 24.146 2.43372 23.0961C2.01992 22.0462 2.53542 20.8599 3.58523 20.4459C5.5002 19.6909 7.0595 19.0217 8.27486 18.3549C9.50977 17.6774 10.213 17.0946 10.5784 16.5935C10.878 16.1825 10.9886 15.7849 10.8846 15.1952C10.7619 14.4989 10.3209 13.479 9.25655 12.0191C8.5919 11.1071 8.79249 9.82878 9.70441 9.16399Z" fill="#107B8B"/>
<path d="M7.14863 16.5646C6.22583 17.2142 4.951 16.9925 4.30131 16.0698C3.10348 14.3685 2.28442 12.7422 2.03195 11.1579C1.76246 9.46665 2.161 7.95007 3.13505 6.6594C4.04195 5.45773 5.37451 4.54706 6.82304 3.78311C8.29134 3.00874 10.0653 2.29113 12.0164 1.5588C13.0731 1.1622 14.2512 1.69754 14.6478 2.75416C15.0443 3.8107 14.5093 4.9884 13.4528 5.38502C11.5257 6.10836 9.95555 6.75181 8.72938 7.3985C7.48347 8.0556 6.77077 8.62668 6.39718 9.1217C6.09083 9.5277 5.97371 9.92348 6.06792 10.5148C6.1792 11.213 6.60334 12.24 7.64345 13.7173C8.293 14.6401 8.07138 15.9149 7.14863 16.5646Z" fill="#107B8B"/>
<path d="M29.7895 21.3C28.6162 21.3 27.5495 21.1 26.5895 20.7C25.6428 20.3 24.8828 19.72 24.3095 18.96C23.7495 18.1867 23.4695 17.24 23.4695 16.12H27.0295C27.0962 16.8667 27.3762 17.42 27.8695 17.78C28.3628 18.14 28.9762 18.32 29.7095 18.32C30.4295 18.32 31.0228 18.1933 31.4895 17.94C31.9562 17.6867 32.1895 17.3333 32.1895 16.88C32.1895 16.4933 32.0495 16.2067 31.7695 16.02C31.4895 15.8333 31.0628 15.6533 30.4895 15.48L27.2895 14.54C26.6628 14.3533 26.0695 14.12 25.5095 13.84C24.9495 13.5467 24.4962 13.1467 24.1495 12.64C23.8162 12.1333 23.6495 11.4467 23.6495 10.58C23.6495 9.58 23.8895 8.72 24.3695 8C24.8495 7.26667 25.5295 6.7 26.4095 6.3C27.2895 5.9 28.3228 5.7 29.5095 5.7C31.2295 5.7 32.6228 6.12 33.6895 6.96C34.7695 7.8 35.3895 8.99333 35.5495 10.54H31.9495C31.6695 9.27333 30.8095 8.64 29.3695 8.64C28.6762 8.64 28.1428 8.77333 27.7695 9.04C27.4095 9.30667 27.2295 9.66667 27.2295 10.12C27.2295 10.4533 27.3428 10.7333 27.5695 10.96C27.7962 11.1867 28.1562 11.3733 28.6495 11.52L31.9895 12.52C33.2695 12.8933 34.2028 13.4067 34.7895 14.06C35.3762 14.7133 35.6695 15.5667 35.6695 16.62C35.6695 17.5533 35.4228 18.3733 34.9295 19.08C34.4495 19.7733 33.7695 20.32 32.8895 20.72C32.0095 21.1067 30.9762 21.3 29.7895 21.3ZM42.7028 21.3C41.5428 21.3 40.5361 21.06 39.6828 20.58C38.8294 20.0867 38.1628 19.3933 37.6828 18.5C37.2161 17.5933 36.9828 16.5267 36.9828 15.3C36.9828 14.0733 37.2161 13.0133 37.6828 12.12C38.1494 11.2267 38.8028 10.5333 39.6428 10.04C40.4961 9.54667 41.4961 9.3 42.6428 9.3C43.8294 9.3 44.8361 9.56667 45.6628 10.1C46.5028 10.6333 47.1294 11.4067 47.5428 12.42C47.9694 13.4333 48.1494 14.6533 48.0828 16.08H40.2428C40.3494 16.9333 40.6294 17.6 41.0828 18.08C41.5361 18.56 42.1228 18.8 42.8428 18.8C43.4294 18.8 43.9094 18.66 44.2828 18.38C44.6561 18.0867 44.8894 17.7333 44.9828 17.32H48.0028C47.8694 18.1467 47.5561 18.86 47.0628 19.46C46.5828 20.0467 45.9694 20.5 45.2228 20.82C44.4761 21.14 43.6361 21.3 42.7028 21.3ZM42.6628 11.78C42.0094 11.78 41.4694 11.9933 41.0428 12.42C40.6161 12.8333 40.3494 13.3933 40.2428 14.1H44.8828C44.8294 13.26 44.5828 12.6667 44.1428 12.32C43.7028 11.96 43.2094 11.78 42.6628 11.78ZM41.4028 8.4L43.0228 5.34H46.5228L44.0428 8.4H41.4028ZM49.7112 21V14.4C49.7112 12.76 50.1512 11.5 51.0312 10.62C51.9245 9.74 53.1979 9.3 54.8512 9.3C55.0245 9.3 55.2979 9.31333 55.6712 9.34C56.0445 9.35333 56.4179 9.4 56.7912 9.48V12.26C56.5379 12.22 56.2979 12.1867 56.0712 12.16C55.8445 12.12 55.5912 12.1 55.3112 12.1C54.8979 12.1 54.5112 12.16 54.1512 12.28C53.7912 12.4 53.4979 12.6267 53.2712 12.96C53.0579 13.2933 52.9512 13.78 52.9512 14.42V21H49.7112ZM63.0934 21.3C61.9334 21.3 60.9267 21.06 60.0734 20.58C59.2201 20.0867 58.5534 19.3933 58.0734 18.5C57.6067 17.5933 57.3734 16.5267 57.3734 15.3C57.3734 14.0733 57.6067 13.0133 58.0734 12.12C58.5401 11.2267 59.1934 10.5333 60.0334 10.04C60.8867 9.54667 61.8867 9.3 63.0334 9.3C64.2201 9.3 65.2267 9.56667 66.0534 10.1C66.8934 10.6333 67.5201 11.4067 67.9334 12.42C68.3601 13.4333 68.5401 14.6533 68.4734 16.08H60.6334C60.7401 16.9333 61.0201 17.6 61.4734 18.08C61.9267 18.56 62.5134 18.8 63.2334 18.8C63.8201 18.8 64.3001 18.66 64.6734 18.38C65.0467 18.0867 65.2801 17.7333 65.3734 17.32H68.3934C68.2601 18.1467 67.9467 18.86 67.4534 19.46C66.9734 20.0467 66.3601 20.5 65.6134 20.82C64.8667 21.14 64.0267 21.3 63.0934 21.3ZM63.0534 11.78C62.4001 11.78 61.8601 11.9933 61.4334 12.42C61.0067 12.8333 60.7401 13.3933 60.6334 14.1H65.2734C65.2201 13.26 64.9734 12.6667 64.5334 12.32C64.0934 11.96 63.6001 11.78 63.0534 11.78ZM61.7934 8.4L63.4134 5.34H66.9134L64.4334 8.4H61.7934ZM70.099 21V14.3C70.099 13.2733 70.3057 12.3867 70.719 11.64C71.1457 10.8933 71.7457 10.32 72.519 9.92C73.2924 9.50667 74.2057 9.3 75.259 9.3C76.3124 9.3 77.2257 9.50667 77.999 9.92C78.7724 10.32 79.3657 10.8933 79.779 11.64C80.2057 12.3867 80.419 13.2733 80.419 14.3V21H77.179V14.34C77.179 13.62 76.999 13.0667 76.639 12.68C76.2924 12.2933 75.8324 12.1 75.259 12.1C74.699 12.1 74.239 12.2933 73.879 12.68C73.519 13.0667 73.339 13.62 73.339 14.34V21H70.099Z" fill="#107B8B"/>
<path d="M85.5716 3.47253C85.9178 2.67754 86.843 2.31366 87.638 2.65984C88.7242 3.13285 89.6515 3.70061 90.2905 4.45215C90.9834 5.26705 91.2684 6.21907 91.1671 7.22997C91.0744 8.15564 90.6675 9.03742 90.1884 9.83893C89.7004 10.6552 89.0515 11.5258 88.3355 12.4387C87.8004 13.121 86.8136 13.2403 86.1313 12.7052C85.449 12.1701 85.3297 11.1832 85.8648 10.5009C86.5685 9.60362 87.1132 8.86337 87.4933 8.22764C87.8821 7.57716 88.0179 7.16579 88.0428 6.9169C88.0592 6.75325 88.0369 6.64919 87.8983 6.48622C87.7059 6.25988 87.2774 5.92783 86.3843 5.5389C85.5893 5.19271 85.2254 4.26752 85.5716 3.47253Z" fill="#107B8B"/>
<path d="M93.8662 21V6H97.4062V21H93.8662ZM103.53 21V9.12H99.2901V6H111.29V9.12H107.05V21H103.53Z" fill="#107B8B"/>
</svg>
