<svg width="44" height="44" viewBox="0 0 44 44" fill="none" xmlns="http://www.w3.org/2000/svg">
<rect width="44" height="44" rx="8" fill="#70FF82"/>
<path d="M19 22L21 24L25 20M13 22C13 23.1819 13.2328 24.3522 13.6851 25.4442C14.1374 26.5361 14.8003 27.5282 15.636 28.364C16.4718 29.1997 17.4639 29.8626 18.5558 30.3149C19.6478 30.7672 20.8181 31 22 31C23.1819 31 24.3522 30.7672 25.4442 30.3149C26.5361 29.8626 27.5282 29.1997 28.364 28.364C29.1997 27.5282 29.8626 26.5361 30.3149 25.4442C30.7672 24.3522 31 23.1819 31 22C31 20.8181 30.7672 19.6478 30.3149 18.5558C29.8626 17.4639 29.1997 16.4718 28.364 15.636C27.5282 14.8003 26.5361 14.1374 25.4442 13.6851C24.3522 13.2328 23.1819 13 22 13C20.8181 13 19.6478 13.2328 18.5558 13.6851C17.4639 14.1374 16.4718 14.8003 15.636 15.636C14.8003 16.4718 14.1374 17.4639 13.6851 18.5558C13.2328 19.6478 13 20.8181 13 22Z" stroke="#107B8B" stroke-width="2" stroke-linecap="round" stroke-linejoin="round"/>
</svg>
