<svg width="22" height="21" viewBox="0 0 22 21" fill="none" xmlns="http://www.w3.org/2000/svg">
<path d="M9.81262 0.690967C10.112 -0.230343 11.4154 -0.230344 11.7147 0.690966L13.5701 6.4012C13.704 6.81323 14.0879 7.09219 14.5212 7.09219H20.5253C21.494 7.09219 21.8968 8.3318 21.113 8.9012L16.2556 12.4303C15.9051 12.685 15.7585 13.1363 15.8923 13.5484L17.7477 19.2586C18.0471 20.1799 16.9926 20.946 16.2089 20.3766L11.3515 16.8475C11.001 16.5929 10.5264 16.5929 10.1759 16.8475L5.31847 20.3766C4.53476 20.946 3.48028 20.1799 3.77963 19.2586L5.635 13.5484C5.76887 13.1363 5.62221 12.685 5.27172 12.4303L0.414308 8.9012C-0.369406 8.3318 0.0333683 7.09219 1.00209 7.09219H7.00619C7.43942 7.09219 7.82337 6.81323 7.95725 6.4012L9.81262 0.690967Z" fill="#00D11C"/>
</svg>
