<svg width="44" height="44" viewBox="0 0 44 44" fill="none" xmlns="http://www.w3.org/2000/svg">
<rect width="44" height="44" rx="8" fill="#70FF82"/>
<path d="M19 29V23C19 22.7348 18.8946 22.4804 18.7071 22.2929C18.5196 22.1054 18.2652 22 18 22H14C13.7348 22 13.4804 22.1054 13.2929 22.2929C13.1054 22.4804 13 22.7348 13 23V29C13 29.2652 13.1054 29.5196 13.2929 29.7071C13.4804 29.8946 13.7348 30 14 30M19 29C19 29.2652 18.8946 29.5196 18.7071 29.7071C18.5196 29.8946 18.2652 30 18 30H14M19 29C19 29.2652 19.1054 29.5196 19.2929 29.7071C19.4804 29.8946 19.7348 30 20 30H24C24.2652 30 24.5196 29.8946 24.7071 29.7071C24.8946 29.5196 25 29.2652 25 29M19 29V15C19 14.7348 19.1054 14.4804 19.2929 14.2929C19.4804 14.1054 19.7348 14 20 14H24C24.2652 14 24.5196 14.1054 24.7071 14.2929C24.8946 14.4804 25 14.7348 25 15V29M14 30H28M25 29C25 29.2652 25.1054 29.5196 25.2929 29.7071C25.4804 29.8946 25.7348 30 26 30H30C30.2652 30 30.5196 29.8946 30.7071 29.7071C30.8946 29.5196 31 29.2652 31 29V19C31 18.7348 30.8946 18.4804 30.7071 18.2929C30.5196 18.1054 30.2652 18 30 18H26C25.7348 18 25.4804 18.1054 25.2929 18.2929C25.1054 18.4804 25 18.7348 25 19V29Z" stroke="#107B8B" stroke-width="2" stroke-linecap="round" stroke-linejoin="round"/>
</svg>
